<svg width="800" height="200" viewBox="0 0 800 200" fill="none" xmlns="http://www.w3.org/2000/svg">
  <defs>
    <linearGradient id="gradLogo" x1="0%" y1="0%" x2="100%" y2="0%">
      <stop offset="0%" style="stop-color:#0052D4;stop-opacity:1" />
      <stop offset="100%" style="stop-color:#43C6AC;stop-opacity:1" />
    </linearGradient>
  </defs>
  <g transform="translate(20, 20) scale(0.35)">
    <path d="M150 400 L210 150 L210 100 L290 100 L290 150 L350 400 Z" stroke="url(#gradLogo)" stroke-width="30" stroke-linejoin="round" fill="none"/>
    <path d="M225 280 H255 A15 15 0 0 1 270 295 V310 A15 15 0 0 0 285 325 H300 V355 H270 A15 15 0 0 1 255 340 V325 A15 15 0 0 0 240 310 H225 V280 Z" fill="url(#gradLogo)"/>
  </g>
  <text x="180" y="110" font-family="Arial, sans-serif" font-weight="900" font-size="85" fill="url(#gradLogo)">ludolab.cl</text>
  <text x="185" y="160" font-family="Arial, sans-serif" font-size="28" letter-spacing="5" fill="#64748B">JUEGA • APRENDE • EXPLORA</text>
</svg>
